<?xml version="1.0" encoding="utf-8"?>
<svg viewBox="0 0 500 500" xmlns="http://www.w3.org/2000/svg">
  <path d="M 428.241 155.253 L 449.331 144.537 L 441.142 131.94 L 420.223 142.523 L 253.448 57.9 L 253.448 2.346 L 236.937 2.346 L 236.937 57.368 L 72.022 141.079 L 50.685 129.945 L 42.268 142.466 L 61.059 152.251 L 61.059 324.995 L 7.69 352.087 L 15.936 364.684 L 69.666 337.4 L 236.937 422.289 L 236.937 443.398 L 253.448 443.398 L 253.448 421.795 L 417.886 338.312 L 472.853 367.002 L 481.232 354.443 L 428.241 326.819 L 428.241 155.253 L 428.241 155.253 Z M 411.771 318.25 L 369.952 296.476 L 369.952 184.815 L 411.771 163.632 L 411.771 318.25 Z M 311.7 266.038 L 311.7 214.474 L 353.479 193.194 L 353.479 287.85 L 311.7 266.038 Z M 185.903 278.35 L 236.937 304.437 L 236.937 346.577 L 144.162 299.554 L 185.903 278.35 Z M 253.448 192.605 L 287.418 209.971 L 253.448 227.261 L 253.448 192.605 L 253.448 192.605 Z M 236.937 227.09 L 203.003 209.401 L 236.937 192.035 L 236.937 227.09 Z M 236.937 175.241 L 186.72 200.908 L 145.682 179.476 L 236.937 133.099 L 236.937 175.241 L 236.937 175.241 Z M 228.843 239.744 L 194.092 257.412 L 194.092 221.656 L 228.843 239.744 Z M 236.937 252.417 L 236.937 287.641 L 202.376 269.971 L 236.937 252.417 Z M 253.448 252.607 L 286.81 270.009 L 253.448 287.052 L 253.448 252.607 L 253.448 252.607 Z M 261.578 239.934 L 295.227 222.834 L 295.227 257.469 L 261.578 239.934 Z M 403.677 150.94 L 303.91 201.592 L 253.448 175.811 L 253.448 133.65 L 299.293 156.963 L 307.539 144.366 L 253.448 116.873 L 253.448 74.658 L 403.677 150.94 Z M 236.937 74.145 L 236.937 116.303 L 129.38 170.985 L 88.286 149.61 L 236.937 74.145 Z M 77.551 160.896 L 119.31 182.668 L 119.31 239.839 L 135.783 239.839 L 135.783 191.256 L 177.564 213.03 L 177.564 265.791 L 77.551 316.616 C 77.551 316.616 77.551 160.896 77.551 160.896 Z M 86.158 329.004 L 127.651 307.952 L 236.937 363.354 L 236.937 405.553 L 86.158 329.004 Z M 253.448 405.002 L 253.448 303.867 L 303.093 278.502 L 344.207 299.915 L 299.331 322.715 L 307.596 335.31 L 360.452 308.389 L 401.549 329.802 L 253.448 405.002 Z" style="stroke: rgb(85, 105, 218); fill: rgb(0, 76, 255); paint-order: fill; stroke-width: 0px;"/>
  <rect x="272.963" y="355.766" transform="matrix(0.547491, 0.836811, -0.896619, 0.456079, 460.673279, -63.740406)" width="15.048" height="26.961" style="stroke: rgb(85, 105, 218); fill: rgb(0, 76, 255); paint-order: fill; stroke-width: 0px;"/>
  <rect x="309.747" y="159.861" transform="matrix(0.547371, -0.83689, 0.896675, 0.455964, -5.939034, 347.168549)" width="15.048" height="27.645" style="stroke: rgb(85, 105, 218); fill: rgb(0, 76, 255); paint-order: fill; stroke-width: 0px;"/>
  <rect x="236.937" y="453.107" width="16.492" height="24.225" style="stroke: rgb(85, 105, 218); fill: rgb(0, 76, 255); paint-order: fill; stroke-width: 0px;"/>
  <rect x="440.425" y="123.704" transform="matrix(-0.546975, -0.837149, 0.89686, -0.455587, 588.840576, 564.757263)" width="15.048" height="26.543" style="stroke: rgb(85, 105, 218); fill: rgb(0, 76, 255); paint-order: fill; stroke-width: 0px;"/>
  <rect x="34.542" y="118.992" transform="matrix(-0.886715, -0.462317, 0.560364, -0.835595, -3.199389, 252.957855)" width="26.676" height="14.972" style="stroke: rgb(85, 105, 218); fill: rgb(0, 76, 255); paint-order: fill; stroke-width: 0px;"/>
  <rect x="119.329" y="248.56" width="16.492" height="24.225" style="stroke: rgb(85, 105, 218); fill: rgb(0, 76, 255); paint-order: fill; stroke-width: 0px;"/>
</svg>