<?xml version="1.0" encoding="utf-8"?>
<svg width="561.404px" height="100px" viewBox="0 0 561.538 100" fill="none" xmlns="http://www.w3.org/2000/svg">
  <text style="fill: rgb(51, 51, 51); font-family: &quot;Segoe UI&quot;; font-size: 75px; white-space: pre;" x="115.388" y="72.929">Spyder</text>
  <text style="fill: rgb(51, 51, 51); font-family: Arial, sans-serif; font-size: 75px; font-weight: 700; white-space: pre;" x="348.842" y="73.444">soft</text>
  <path d="M 90.989 32.655 L 95.431 30.402 L 93.706 27.749 L 89.301 29.978 L 54.179 12.157 L 54.179 0.458 L 50.702 0.458 L 50.702 12.045 L 15.977 29.674 L 11.483 27.329 L 9.711 29.966 L 13.668 32.023 L 13.668 68.401 L 2.429 74.106 L 4.165 76.759 L 15.48 71.013 L 50.702 88.89 L 50.702 93.336 L 54.179 93.336 L 54.179 88.786 L 88.809 71.205 L 100.384 77.247 L 102.149 74.602 L 90.989 68.785 L 90.989 32.655 L 90.989 32.655 Z M 87.52 66.98 L 78.714 62.395 L 78.714 38.88 L 87.52 34.419 L 87.52 66.98 Z M 66.447 55.985 L 66.447 45.126 L 75.245 40.645 L 75.245 60.579 L 66.447 55.985 Z M 39.955 58.578 L 50.702 64.071 L 50.702 72.946 L 31.169 63.043 L 39.955 58.578 Z M 54.179 40.521 L 61.333 44.178 L 54.179 47.819 L 54.179 40.521 L 54.179 40.521 Z M 50.702 47.783 L 43.556 44.058 L 50.702 40.401 L 50.702 47.783 Z M 50.702 36.864 L 40.127 42.269 L 31.489 37.756 L 50.702 27.993 L 50.702 36.864 L 50.702 36.864 Z M 48.998 50.448 L 41.68 54.169 L 41.68 46.639 L 48.998 50.448 Z M 50.702 53.116 L 50.702 60.534 L 43.424 56.813 L 50.702 53.116 Z M 54.179 53.156 L 61.205 56.821 L 54.179 60.41 L 54.179 53.156 L 54.179 53.156 Z M 55.892 50.488 L 62.978 46.887 L 62.978 54.181 L 55.892 50.488 Z M 85.816 31.746 L 64.806 42.413 L 54.179 36.984 L 54.179 28.109 L 63.834 33.015 L 65.57 30.366 L 54.179 24.576 L 54.179 15.686 L 85.816 31.746 Z M 50.702 15.578 L 50.702 24.456 L 28.056 35.968 L 19.401 31.47 L 50.702 15.578 Z M 17.141 33.843 L 25.935 38.428 L 25.935 50.468 L 29.404 50.468 L 29.404 40.237 L 38.199 44.822 L 38.199 55.933 L 17.141 66.636 C 17.141 66.636 17.141 33.843 17.141 33.843 Z M 18.953 69.245 L 27.692 64.812 L 50.702 76.479 L 50.702 85.365 L 18.953 69.245 Z M 54.179 85.249 L 54.179 63.951 L 64.634 58.61 L 73.292 63.119 L 63.842 67.921 L 65.582 70.573 L 76.713 64.904 L 85.368 69.413 L 54.179 85.249 Z" style="fill: rgb(0, 76, 255); stroke-miterlimit: 2; paint-order: fill; stroke: rgb(0, 76, 255); stroke-width: 0px;"/>
  <rect x="57.48" y="74.917" transform="matrix(0.547491, 0.836811, -0.896619, 0.456079, 97.82003, -13.458532)" width="3.169" height="5.677" style="fill: rgb(0, 76, 255); stroke-miterlimit: 2; paint-order: fill; stroke: rgb(0, 76, 255); stroke-width: 0px;"/>
  <rect x="65.226" y="33.661" transform="matrix(0.547371, -0.83689, 0.896675, 0.455964, -0.440876, 73.072189)" width="3.169" height="5.821" style="fill: rgb(0, 76, 255); stroke-miterlimit: 2; paint-order: fill; stroke: rgb(0, 76, 255); stroke-width: 0px;"/>
  <rect x="50.702" y="95.38" width="3.473" height="5.101" style="fill: rgb(0, 76, 255); stroke-miterlimit: 2; paint-order: fill; stroke: rgb(0, 76, 255); stroke-width: 0px;"/>
  <rect x="92.746" y="26.051" transform="matrix(-0.546975, -0.837149, 0.89686, -0.455587, 124.80999, 118.89283)" width="3.169" height="5.589" style="fill: rgb(0, 76, 255); stroke-miterlimit: 2; paint-order: fill; stroke: rgb(0, 76, 255); stroke-width: 0px;"/>
  <rect x="7.274" y="25.059" transform="matrix(-0.886715, -0.462317, 0.560364, -0.835595, 0.135988, 53.232956)" width="5.617" height="3.153" style="fill: rgb(0, 76, 255); stroke-miterlimit: 2; paint-order: fill; stroke: rgb(0, 76, 255); stroke-width: 0px;"/>
  <rect x="25.939" y="52.304" width="3.473" height="5.101" style="fill: rgb(0, 76, 255); stroke-miterlimit: 2; paint-order: fill; stroke: rgb(0, 76, 255); stroke-width: 0px;"/>
</svg>